<?xml version="1.0" encoding="UTF-8"?>
<svg xmlns="http://www.w3.org/2000/svg" xmlns:xlink="http://www.w3.org/1999/xlink" width="211.207pt" height="211.207pt" viewBox="0 0 211.207 211.207">
<path fill-rule="nonzero" fill="rgb(13.299561%, 12.89978%, 19.999695%)" fill-opacity="1" d="M 58.480469 185.320312 L 151.9375 185.320312 L 151.9375 94.964844 C 151.9375 81.425781 147.96875 68.382812 140.464844 57.242188 C 131.144531 43.433594 119.285156 32.847656 105.207031 25.765625 C 90.785156 33.011719 78.714844 43.921875 69.308594 58.207031 C 62.226562 68.980469 58.480469 81.6875 58.480469 94.953125 Z M 157.855469 191.238281 L 52.5625 191.238281 L 52.5625 94.953125 C 52.5625 80.527344 56.640625 66.699219 64.363281 54.957031 C 74.648438 39.339844 87.953125 27.511719 103.921875 19.800781 L 105.207031 19.179688 L 106.496094 19.800781 C 122.09375 27.339844 135.175781 38.824219 145.371094 53.933594 C 153.539062 66.054688 157.855469 80.242188 157.855469 94.964844 Z M 157.855469 191.238281 "/>
<path fill-rule="nonzero" fill="rgb(13.299561%, 12.89978%, 19.999695%)" fill-opacity="1" d="M 79.683594 185.320312 L 130.734375 185.320312 L 130.734375 122.394531 C 130.734375 109.472656 128.441406 97.054688 124.101562 86.488281 C 119.035156 74.171875 112.6875 64.621094 105.210938 58.066406 C 97.617188 64.746094 90.992188 74.824219 85.953125 87.394531 C 81.851562 97.628906 79.683594 109.722656 79.683594 122.371094 Z M 136.652344 191.238281 L 73.765625 191.238281 L 73.765625 122.371094 C 73.765625 108.976562 76.078125 96.117188 80.460938 85.191406 C 86.367188 70.460938 94.078125 59.253906 103.371094 51.894531 L 105.207031 50.4375 L 107.042969 51.894531 C 116.128906 59.09375 123.710938 69.976562 129.574219 84.238281 C 134.203125 95.515625 136.652344 108.707031 136.652344 122.394531 Z M 136.652344 191.238281 "/>
<path fill-rule="nonzero" fill="rgb(13.299561%, 12.89978%, 19.999695%)" fill-opacity="1" d="M 108.167969 188.28125 L 102.25 188.28125 C 102.25 143.542969 90.429688 114.09375 80.507812 97.265625 C 69.78125 79.066406 58.90625 71.300781 58.800781 71.226562 L 62.1875 66.375 C 64.066406 67.679688 108.167969 99.433594 108.167969 188.28125 "/>
<path fill-rule="nonzero" fill="rgb(13.299561%, 12.89978%, 19.999695%)" fill-opacity="1" d="M 109.386719 188.28125 L 103.46875 188.28125 C 103.46875 99.433594 147.570312 67.679688 149.449219 66.375 L 152.835938 71.226562 C 152.402344 71.53125 109.386719 102.75 109.386719 188.28125 "/>
</svg>
