<svg xmlns="http://www.w3.org/2000/svg" viewBox="0 0 100 130" fill="currentColor">
  <ellipse cx="50" cy="65" rx="46" ry="60" fill="none" stroke="currentColor" stroke-width="2"/>
  <g>
    <circle cx="50" cy="9" r="1.2"/>
    <circle cx="61" cy="10.5" r="1.2"/>
    <circle cx="71" cy="14" r="1.2"/>
    <circle cx="80" cy="20" r="1.2"/>
    <circle cx="87" cy="29" r="1.2"/>
    <circle cx="92" cy="40" r="1.2"/>
    <circle cx="95" cy="52" r="1.2"/>
    <circle cx="96" cy="65" r="1.2"/>
    <circle cx="95" cy="78" r="1.2"/>
    <circle cx="92" cy="90" r="1.2"/>
    <circle cx="87" cy="101" r="1.2"/>
    <circle cx="80" cy="110" r="1.2"/>
    <circle cx="71" cy="116" r="1.2"/>
    <circle cx="61" cy="119.5" r="1.2"/>
    <circle cx="50" cy="121" r="1.2"/>
    <circle cx="39" cy="119.5" r="1.2"/>
    <circle cx="29" cy="116" r="1.2"/>
    <circle cx="20" cy="110" r="1.2"/>
    <circle cx="13" cy="101" r="1.2"/>
    <circle cx="8" cy="90" r="1.2"/>
    <circle cx="5" cy="78" r="1.2"/>
    <circle cx="4" cy="65" r="1.2"/>
    <circle cx="5" cy="52" r="1.2"/>
    <circle cx="8" cy="40" r="1.2"/>
    <circle cx="13" cy="29" r="1.2"/>
    <circle cx="20" cy="20" r="1.2"/>
    <circle cx="29" cy="14" r="1.2"/>
    <circle cx="39" cy="10.5" r="1.2"/>
  </g>
  <text x="50" y="78" font-family="Georgia, 'PT Serif', serif" font-size="42" font-style="italic" text-anchor="middle" font-weight="400">wSx</text>
</svg>
