<?xml version="1.0" encoding="UTF-8"?>
<svg xmlns="http://www.w3.org/2000/svg" xmlns:xlink="http://www.w3.org/1999/xlink" width="1655.19pt" height="371.523pt" viewBox="0 0 1655.19 371.523">
<defs>
<clipPath id="clip-0">
<path clip-rule="nonzero" d="M 0.65625 0 L 1653.722656 0 L 1653.722656 371.046875 L 0.65625 371.046875 Z M 0.65625 0 "/>
</clipPath>
<clipPath id="clip-1">
<path clip-rule="nonzero" d="M 0.148438 0 L 1038.570312 0 L 1038.570312 372 L 0.148438 372 Z M 0.148438 0 "/>
</clipPath>
<clipPath id="clip-2">
<path clip-rule="nonzero" d="M 2.21875 0 L 1646.140625 0 L 1646.140625 342.015625 L 2.21875 342.015625 Z M 2.21875 0 "/>
</clipPath>
</defs>
<pageSet>
<page>
<g clip-path="url(#clip-0)">
</g>
<path fill-rule="nonzero" fill="rgb(0%, 0%, 0%)" fill-opacity="1" d="M 655.769531 251.851562 L 616.023438 134.890625 C 613.660156 134.050781 611.339844 133.164062 609.0625 132.234375 C 606.785156 131.308594 604.632812 130.171875 602.605469 128.816406 L 602.605469 122.234375 L 655.769531 122.234375 L 655.769531 128.5625 C 653.402344 129.917969 651.042969 131.140625 648.683594 132.234375 C 646.316406 133.332031 643.871094 134.21875 641.339844 134.890625 L 662.925781 208.8125 L 666.148438 227.039062 L 666.652344 227.039062 L 670.453125 208.308594 L 697.792969 124.765625 L 705.390625 122.234375 L 734.5 208.558594 L 739.058594 227.039062 L 739.5625 227.039062 L 743.363281 208.558594 L 762.855469 134.890625 C 760.996094 134.554688 758.84375 133.878906 756.398438 132.867188 C 753.953125 131.855469 751.464844 130.503906 748.929688 128.816406 L 748.929688 122.234375 L 791.96875 122.234375 L 791.96875 128.816406 C 788.425781 131.183594 783.613281 133.207031 777.539062 134.890625 L 741.589844 248.8125 L 728.171875 251.851562 L 703.109375 180.207031 L 698.300781 159.195312 L 697.539062 159.195312 L 691.71875 180.207031 L 668.933594 248.8125 Z M 655.769531 251.851562 "/>
<path fill-rule="nonzero" fill="rgb(0%, 0%, 0%)" fill-opacity="1" d="M 837.03125 130.335938 C 827.410156 130.335938 820.070312 133.585938 815.003906 140.082031 C 809.941406 146.582031 806.902344 158.015625 805.890625 174.386719 L 861.585938 174.386719 C 861.753906 172.867188 861.878906 171.390625 861.964844 169.957031 C 862.050781 168.523438 862.09375 167.128906 862.09375 165.777344 C 862.09375 154.976562 860.066406 146.371094 856.015625 139.957031 C 851.96875 133.542969 845.636719 130.335938 837.03125 130.335938 M 883.359375 231.089844 C 882.003906 233.964844 879.898438 236.660156 877.03125 239.191406 C 874.15625 241.726562 870.867188 243.921875 867.15625 245.773438 C 863.441406 247.636719 859.390625 249.105469 855.003906 250.207031 C 850.613281 251.300781 846.144531 251.851562 841.585938 251.851562 C 831.625 251.851562 822.855469 250.289062 815.257812 247.167969 C 807.664062 244.046875 801.335938 239.574219 796.269531 233.75 C 791.210938 227.929688 787.367188 220.964844 784.753906 212.863281 C 782.132812 204.761719 780.828125 195.648438 780.828125 185.523438 C 780.828125 163.921875 785.804688 147.46875 795.765625 136.160156 C 805.722656 124.851562 819.816406 119.195312 838.042969 119.195312 C 843.949219 119.195312 849.769531 120 855.511719 121.601562 C 861.246094 123.207031 866.351562 125.863281 870.824219 129.574219 C 875.296875 133.289062 878.929688 138.226562 881.714844 144.386719 C 884.496094 150.550781 885.886719 158.179688 885.886719 167.296875 C 885.886719 170.167969 885.761719 173.082031 885.511719 176.03125 C 885.257812 178.984375 884.789062 182.148438 884.117188 185.523438 L 805.132812 185.523438 C 805.132812 192.609375 806.019531 199.238281 807.789062 205.398438 C 809.5625 211.558594 812.21875 216.914062 815.765625 221.472656 C 819.308594 226.03125 823.777344 229.617188 829.179688 232.230469 C 834.582031 234.847656 840.910156 236.15625 848.167969 236.15625 C 854.074219 236.15625 860.066406 235.3125 866.144531 233.621094 C 872.21875 231.9375 876.773438 229.742188 879.8125 227.039062 Z M 883.359375 231.089844 "/>
<path fill-rule="nonzero" fill="rgb(0%, 0%, 0%)" fill-opacity="1" d="M 953.480469 219.953125 C 953.480469 215.230469 952 211.21875 949.050781 207.929688 C 946.09375 204.636719 942.339844 201.558594 937.785156 198.6875 C 933.226562 195.820312 928.375 193.035156 923.226562 190.335938 C 918.078125 187.636719 913.226562 184.46875 908.667969 180.839844 C 904.113281 177.210938 900.355469 173.035156 897.402344 168.308594 C 894.449219 163.585938 892.972656 157.761719 892.972656 150.839844 C 892.972656 146.285156 894.027344 142.066406 896.140625 138.183594 C 898.246094 134.300781 901.074219 130.96875 904.621094 128.183594 C 908.164062 125.398438 912.296875 123.207031 917.023438 121.601562 C 921.75 120 926.8125 119.195312 932.214844 119.195312 C 941.328125 119.195312 948.796875 119.703125 954.617188 120.714844 C 960.441406 121.726562 966.050781 123.164062 971.453125 125.019531 C 970.773438 130.421875 969.972656 135.863281 969.046875 141.347656 C 968.117188 146.832031 966.808594 152.449219 965.125 158.179688 L 958.792969 158.179688 L 949.175781 132.359375 C 947.152344 131.519531 944.871094 130.96875 942.339844 130.714844 C 939.808594 130.460938 937.1875 130.335938 934.492188 130.335938 C 931.457031 130.335938 928.796875 130.886719 926.519531 131.980469 C 924.238281 133.082031 922.296875 134.472656 920.695312 136.160156 C 919.089844 137.847656 917.867188 139.789062 917.023438 141.980469 C 916.179688 144.175781 915.761719 146.371094 915.761719 148.5625 C 915.761719 153.121094 917.234375 157.042969 920.191406 160.335938 C 923.136719 163.625 926.898438 166.664062 931.457031 169.449219 C 936.011719 172.230469 940.859375 174.980469 946.011719 177.675781 C 951.15625 180.378906 956.011719 183.414062 960.570312 186.789062 C 965.125 190.167969 968.875 194.089844 971.832031 198.5625 C 974.785156 203.035156 976.265625 208.394531 976.265625 214.636719 C 976.265625 220.378906 975.039062 225.523438 972.59375 230.078125 C 970.144531 234.636719 966.769531 238.519531 962.46875 241.726562 C 958.160156 244.933594 953.179688 247.417969 947.527344 249.195312 C 941.871094 250.964844 935.839844 251.851562 929.429688 251.851562 C 922.171875 251.851562 915.507812 251.21875 909.429688 249.953125 C 903.355469 248.683594 897.027344 246.875 890.445312 244.507812 C 890.777344 238.433594 891.539062 232.570312 892.71875 226.917969 C 893.902344 221.261719 895.417969 215.820312 897.277344 210.585938 L 903.609375 210.585938 L 914.746094 238.179688 C 916.601562 239.53125 918.835938 240.292969 921.453125 240.457031 C 924.066406 240.628906 926.476562 240.710938 928.671875 240.710938 C 936.097656 240.710938 942.085938 238.6875 946.644531 234.636719 C 951.203125 230.585938 953.480469 225.691406 953.480469 219.953125 "/>
<path fill-rule="nonzero" fill="rgb(0%, 0%, 0%)" fill-opacity="1" d="M 1044.109375 219.953125 C 1044.109375 215.230469 1042.628906 211.21875 1039.679688 207.929688 C 1036.722656 204.636719 1032.96875 201.558594 1028.414062 198.6875 C 1023.855469 195.820312 1019.003906 193.035156 1013.855469 190.335938 C 1008.707031 187.636719 1003.855469 184.46875 999.296875 180.839844 C 994.742188 177.210938 990.984375 173.035156 988.03125 168.308594 C 985.078125 163.585938 983.601562 157.761719 983.601562 150.839844 C 983.601562 146.285156 984.65625 142.066406 986.769531 138.183594 C 988.875 134.300781 991.703125 130.96875 995.246094 128.183594 C 998.792969 125.398438 1002.925781 123.207031 1007.652344 121.601562 C 1012.378906 120 1017.4375 119.195312 1022.84375 119.195312 C 1031.957031 119.195312 1039.425781 119.703125 1045.246094 120.714844 C 1051.070312 121.726562 1056.679688 123.164062 1062.082031 125.019531 C 1061.402344 130.421875 1060.601562 135.863281 1059.675781 141.347656 C 1058.746094 146.832031 1057.4375 152.449219 1055.753906 158.179688 L 1049.421875 158.179688 L 1039.804688 132.359375 C 1037.78125 131.519531 1035.5 130.96875 1032.96875 130.714844 C 1030.4375 130.460938 1027.816406 130.335938 1025.121094 130.335938 C 1022.085938 130.335938 1019.425781 130.886719 1017.148438 131.980469 C 1014.867188 133.082031 1012.925781 134.472656 1011.324219 136.160156 C 1009.71875 137.847656 1008.496094 139.789062 1007.652344 141.980469 C 1006.808594 144.175781 1006.386719 146.371094 1006.386719 148.5625 C 1006.386719 153.121094 1007.863281 157.042969 1010.820312 160.335938 C 1013.765625 163.625 1017.527344 166.664062 1022.085938 169.449219 C 1026.640625 172.230469 1031.488281 174.980469 1036.640625 177.675781 C 1041.785156 180.378906 1046.640625 183.414062 1051.195312 186.789062 C 1055.753906 190.167969 1059.507812 194.089844 1062.460938 198.5625 C 1065.414062 203.035156 1066.894531 208.394531 1066.894531 214.636719 C 1066.894531 220.378906 1065.667969 225.523438 1063.21875 230.078125 C 1060.773438 234.636719 1057.398438 238.519531 1053.09375 241.726562 C 1048.789062 244.933594 1043.808594 247.417969 1038.160156 249.195312 C 1032.5 250.964844 1026.46875 251.851562 1020.058594 251.851562 C 1012.800781 251.851562 1006.136719 251.21875 1000.058594 249.953125 C 993.984375 248.683594 987.65625 246.875 981.074219 244.507812 C 981.40625 238.433594 982.167969 232.570312 983.347656 226.917969 C 984.53125 221.261719 986.046875 215.820312 987.90625 210.585938 L 994.234375 210.585938 L 1005.375 238.179688 C 1007.226562 239.53125 1009.464844 240.292969 1012.082031 240.457031 C 1014.699219 240.628906 1017.105469 240.710938 1019.300781 240.710938 C 1026.722656 240.710938 1032.714844 238.6875 1037.273438 234.636719 C 1041.828125 230.585938 1044.109375 225.691406 1044.109375 219.953125 "/>
<path fill-rule="nonzero" fill="rgb(0%, 0%, 0%)" fill-opacity="1" d="M 1126.636719 130.335938 C 1117.019531 130.335938 1109.679688 133.585938 1104.613281 140.082031 C 1099.550781 146.582031 1096.511719 158.015625 1095.5 174.386719 L 1151.195312 174.386719 C 1151.363281 172.867188 1151.488281 171.390625 1151.574219 169.957031 C 1151.65625 168.523438 1151.699219 167.128906 1151.699219 165.777344 C 1151.699219 154.976562 1149.675781 146.371094 1145.625 139.957031 C 1141.574219 133.542969 1135.246094 130.335938 1126.636719 130.335938 M 1172.964844 231.089844 C 1171.613281 233.964844 1169.503906 236.660156 1166.636719 239.191406 C 1163.765625 241.726562 1160.476562 243.921875 1156.761719 245.773438 C 1153.050781 247.636719 1149 249.105469 1144.613281 250.207031 C 1140.222656 251.300781 1135.753906 251.851562 1131.195312 251.851562 C 1121.234375 251.851562 1112.460938 250.289062 1104.867188 247.167969 C 1097.273438 244.046875 1090.945312 239.574219 1085.878906 233.75 C 1080.816406 227.929688 1076.976562 220.964844 1074.363281 212.863281 C 1071.742188 204.761719 1070.4375 195.648438 1070.4375 185.523438 C 1070.4375 163.921875 1075.414062 147.46875 1085.375 136.160156 C 1095.332031 124.851562 1109.425781 119.195312 1127.648438 119.195312 C 1133.558594 119.195312 1139.378906 120 1145.121094 121.601562 C 1150.855469 123.207031 1155.960938 125.863281 1160.433594 129.574219 C 1164.90625 133.289062 1168.535156 138.226562 1171.320312 144.386719 C 1174.105469 150.550781 1175.496094 158.179688 1175.496094 167.296875 C 1175.496094 170.167969 1175.371094 173.082031 1175.117188 176.03125 C 1174.867188 178.984375 1174.398438 182.148438 1173.726562 185.523438 L 1094.738281 185.523438 C 1094.738281 192.609375 1095.628906 199.238281 1097.398438 205.398438 C 1099.171875 211.558594 1101.828125 216.914062 1105.371094 221.472656 C 1108.914062 226.03125 1113.386719 229.617188 1118.789062 232.230469 C 1124.191406 234.847656 1130.519531 236.15625 1137.777344 236.15625 C 1143.683594 236.15625 1149.675781 235.3125 1155.75 233.621094 C 1161.828125 231.9375 1166.382812 229.742188 1169.421875 227.039062 Z M 1172.964844 231.089844 "/>
<path fill-rule="nonzero" fill="rgb(0%, 0%, 0%)" fill-opacity="1" d="M 1243.847656 180.96875 L 1283.84375 236.40625 C 1286.207031 237.253906 1288.527344 238.140625 1290.808594 239.066406 C 1293.085938 239.996094 1295.238281 241.132812 1297.265625 242.484375 L 1297.265625 248.8125 L 1245.367188 248.8125 L 1245.367188 242.738281 C 1247.726562 241.386719 1249.921875 240.167969 1251.945312 239.066406 C 1253.972656 237.972656 1256 237.085938 1258.023438 236.40625 L 1229.921875 194.890625 L 1201.570312 236.40625 C 1203.933594 237.253906 1206.128906 238.179688 1208.152344 239.191406 C 1210.175781 240.203125 1212.203125 241.304688 1214.226562 242.484375 L 1214.226562 248.8125 L 1170.9375 248.8125 L 1170.9375 242.484375 C 1175.660156 239.617188 1180.386719 237.589844 1185.113281 236.40625 L 1222.835938 186.027344 L 1184.859375 134.890625 C 1182.496094 134.050781 1180.34375 133.164062 1178.40625 132.234375 C 1176.464844 131.308594 1174.484375 130.167969 1172.457031 128.816406 L 1172.457031 122.234375 L 1223.339844 122.234375 L 1223.339844 128.5625 C 1221.316406 129.917969 1219.332031 131.136719 1217.390625 132.234375 C 1215.449219 133.332031 1213.296875 134.21875 1210.9375 134.890625 L 1237.265625 172.863281 L 1263.085938 134.890625 C 1257.347656 133.039062 1253.128906 131.011719 1250.429688 128.816406 L 1250.429688 122.234375 L 1292.707031 122.234375 L 1292.707031 128.816406 C 1289.5 131.011719 1284.773438 133.039062 1278.53125 134.890625 Z M 1243.847656 180.96875 "/>
<path fill-rule="nonzero" fill="rgb(0%, 0%, 0%)" fill-opacity="1" d="M 460.484375 76.523438 C 460.484375 77.554688 459.644531 78.394531 458.613281 78.394531 C 457.578125 78.394531 456.742188 77.554688 456.742188 76.523438 C 456.742188 75.492188 457.578125 74.652344 458.613281 74.652344 C 459.644531 74.652344 460.484375 75.492188 460.484375 76.523438 "/>
<path fill-rule="nonzero" fill="rgb(0%, 0%, 0%)" fill-opacity="1" d="M 458.613281 75.027344 C 457.785156 75.027344 457.113281 75.699219 457.113281 76.523438 C 457.113281 77.347656 457.785156 78.019531 458.613281 78.019531 C 459.4375 78.019531 460.109375 77.347656 460.109375 76.523438 C 460.109375 75.699219 459.4375 75.027344 458.613281 75.027344 M 458.613281 78.765625 C 457.375 78.765625 456.367188 77.761719 456.367188 76.523438 C 456.367188 75.285156 457.375 74.28125 458.613281 74.28125 C 459.851562 74.28125 460.855469 75.285156 460.855469 76.523438 C 460.855469 77.761719 459.851562 78.765625 458.613281 78.765625 "/>
<path fill-rule="nonzero" fill="rgb(0%, 0%, 0%)" fill-opacity="1" d="M 460.503906 294.476562 C 460.503906 295.535156 459.644531 296.394531 458.582031 296.394531 C 457.523438 296.394531 456.664062 295.535156 456.664062 294.476562 C 456.664062 293.414062 457.523438 292.554688 458.582031 292.554688 C 459.644531 292.554688 460.503906 293.414062 460.503906 294.476562 "/>
<path fill-rule="nonzero" fill="rgb(0%, 0%, 0%)" fill-opacity="1" d="M 458.582031 292.929688 C 457.730469 292.929688 457.035156 293.621094 457.035156 294.476562 C 457.035156 295.328125 457.730469 296.019531 458.582031 296.019531 C 459.4375 296.019531 460.128906 295.328125 460.128906 294.476562 C 460.128906 293.621094 459.4375 292.929688 458.582031 292.929688 M 458.582031 296.765625 C 457.320312 296.765625 456.289062 295.738281 456.289062 294.476562 C 456.289062 293.210938 457.320312 292.183594 458.582031 292.183594 C 459.847656 292.183594 460.875 293.210938 460.875 294.476562 C 460.875 295.738281 459.847656 296.765625 458.582031 296.765625 "/>
<path fill-rule="nonzero" fill="rgb(0%, 0%, 0%)" fill-opacity="1" d="M 508.917969 276.847656 C 508.917969 277.894531 508.070312 278.742188 507.023438 278.742188 C 505.976562 278.742188 505.125 277.894531 505.125 276.847656 C 505.125 275.796875 505.976562 274.949219 507.023438 274.949219 C 508.070312 274.949219 508.917969 275.796875 508.917969 276.847656 "/>
<path fill-rule="nonzero" fill="rgb(0%, 0%, 0%)" fill-opacity="1" d="M 507.023438 275.324219 C 506.183594 275.324219 505.5 276.007812 505.5 276.847656 C 505.5 277.6875 506.183594 278.367188 507.023438 278.367188 C 507.863281 278.367188 508.546875 277.6875 508.546875 276.847656 C 508.546875 276.007812 507.863281 275.324219 507.023438 275.324219 M 507.023438 279.113281 C 505.773438 279.113281 504.753906 278.097656 504.753906 276.847656 C 504.753906 275.59375 505.773438 274.578125 507.023438 274.578125 C 508.273438 274.578125 509.292969 275.59375 509.292969 276.847656 C 509.292969 278.097656 508.273438 279.113281 507.023438 279.113281 "/>
<path fill-rule="nonzero" fill="rgb(0%, 0%, 0%)" fill-opacity="1" d="M 486.664062 81.210938 C 486.664062 82.246094 485.824219 83.085938 484.789062 83.085938 C 483.75 83.085938 482.910156 82.246094 482.910156 81.210938 C 482.910156 80.175781 483.75 79.335938 484.789062 79.335938 C 485.824219 79.335938 486.664062 80.175781 486.664062 81.210938 "/>
<path fill-rule="nonzero" fill="rgb(0%, 0%, 0%)" fill-opacity="1" d="M 484.789062 79.707031 C 483.957031 79.707031 483.285156 80.382812 483.285156 81.210938 C 483.285156 82.039062 483.957031 82.714844 484.789062 82.714844 C 485.617188 82.714844 486.289062 82.039062 486.289062 81.210938 C 486.289062 80.382812 485.617188 79.707031 484.789062 79.707031 M 484.789062 83.460938 C 483.546875 83.460938 482.539062 82.449219 482.539062 81.210938 C 482.539062 79.96875 483.546875 78.960938 484.789062 78.960938 C 486.027344 78.960938 487.039062 79.96875 487.039062 81.210938 C 487.039062 82.449219 486.027344 83.460938 484.789062 83.460938 "/>
<path fill-rule="nonzero" fill="rgb(0%, 0%, 0%)" fill-opacity="1" d="M 396.257812 114.148438 C 396.257812 115.1875 395.417969 116.027344 394.378906 116.027344 C 393.339844 116.027344 392.496094 115.1875 392.496094 114.148438 C 392.496094 113.109375 393.339844 112.265625 394.378906 112.265625 C 395.417969 112.265625 396.257812 113.109375 396.257812 114.148438 "/>
<path fill-rule="nonzero" fill="rgb(0%, 0%, 0%)" fill-opacity="1" d="M 394.378906 112.640625 C 393.546875 112.640625 392.867188 113.316406 392.867188 114.148438 C 392.867188 114.980469 393.546875 115.65625 394.378906 115.65625 C 395.210938 115.65625 395.886719 114.980469 395.886719 114.148438 C 395.886719 113.316406 395.210938 112.640625 394.378906 112.640625 M 394.378906 116.402344 C 393.132812 116.402344 392.121094 115.390625 392.121094 114.148438 C 392.121094 112.902344 393.132812 111.894531 394.378906 111.894531 C 395.621094 111.894531 396.632812 112.902344 396.632812 114.148438 C 396.632812 115.390625 395.621094 116.402344 394.378906 116.402344 "/>
<path fill-rule="nonzero" fill="rgb(0%, 0%, 0%)" fill-opacity="1" d="M 508.925781 95.015625 C 508.925781 96.054688 508.085938 96.894531 507.046875 96.894531 C 506.007812 96.894531 505.167969 96.054688 505.167969 95.015625 C 505.167969 93.976562 506.007812 93.136719 507.046875 93.136719 C 508.085938 93.136719 508.925781 93.976562 508.925781 95.015625 "/>
<path fill-rule="nonzero" fill="rgb(0%, 0%, 0%)" fill-opacity="1" d="M 507.046875 93.507812 C 506.214844 93.507812 505.539062 94.183594 505.539062 95.015625 C 505.539062 95.847656 506.214844 96.519531 507.046875 96.519531 C 507.878906 96.519531 508.554688 95.847656 508.554688 95.015625 C 508.554688 94.183594 507.878906 93.507812 507.046875 93.507812 M 507.046875 97.265625 C 505.804688 97.265625 504.792969 96.257812 504.792969 95.015625 C 504.792969 93.773438 505.804688 92.765625 507.046875 92.765625 C 508.289062 92.765625 509.300781 93.773438 509.300781 95.015625 C 509.300781 96.257812 508.289062 97.265625 507.046875 97.265625 "/>
<path fill-rule="nonzero" fill="rgb(0%, 0%, 0%)" fill-opacity="1" d="M 486.628906 289.941406 C 486.628906 290.976562 485.789062 291.8125 484.757812 291.8125 C 483.722656 291.8125 482.886719 290.976562 482.886719 289.941406 C 482.886719 288.910156 483.722656 288.074219 484.757812 288.074219 C 485.789062 288.074219 486.628906 288.910156 486.628906 289.941406 "/>
<path fill-rule="nonzero" fill="rgb(0%, 0%, 0%)" fill-opacity="1" d="M 484.757812 288.445312 C 483.929688 288.445312 483.257812 289.117188 483.257812 289.941406 C 483.257812 290.769531 483.929688 291.441406 484.757812 291.441406 C 485.582031 291.441406 486.253906 290.769531 486.253906 289.941406 C 486.253906 289.117188 485.582031 288.445312 484.757812 288.445312 M 484.757812 292.1875 C 483.519531 292.1875 482.511719 291.179688 482.511719 289.941406 C 482.511719 288.707031 483.519531 287.699219 484.757812 287.699219 C 485.992188 287.699219 487 288.707031 487 289.941406 C 487 291.179688 485.992188 292.1875 484.757812 292.1875 "/>
<path fill-rule="nonzero" fill="rgb(0%, 0%, 0%)" fill-opacity="1" d="M 412.023438 95.023438 C 412.023438 96.054688 411.183594 96.890625 410.152344 96.890625 C 409.117188 96.890625 408.28125 96.054688 408.28125 95.023438 C 408.28125 93.988281 409.117188 93.152344 410.152344 93.152344 C 411.183594 93.152344 412.023438 93.988281 412.023438 95.023438 "/>
<path fill-rule="nonzero" fill="rgb(0%, 0%, 0%)" fill-opacity="1" d="M 410.152344 93.523438 C 409.324219 93.523438 408.652344 94.195312 408.652344 95.023438 C 408.652344 95.847656 409.324219 96.519531 410.152344 96.519531 C 410.976562 96.519531 411.648438 95.847656 411.648438 95.023438 C 411.648438 94.195312 410.976562 93.523438 410.152344 93.523438 M 410.152344 97.265625 C 408.914062 97.265625 407.90625 96.257812 407.90625 95.023438 C 407.90625 93.785156 408.914062 92.777344 410.152344 92.777344 C 411.390625 92.777344 412.394531 93.785156 412.394531 95.023438 C 412.394531 96.257812 411.390625 97.265625 410.152344 97.265625 "/>
<path fill-rule="nonzero" fill="rgb(0%, 0%, 0%)" fill-opacity="1" d="M 434.136719 290.09375 C 434.136719 291.125 433.300781 291.957031 432.273438 291.957031 C 431.242188 291.957031 430.410156 291.125 430.410156 290.09375 C 430.410156 289.066406 431.242188 288.234375 432.273438 288.234375 C 433.300781 288.234375 434.136719 289.066406 434.136719 290.09375 "/>
<path fill-rule="nonzero" fill="rgb(0%, 0%, 0%)" fill-opacity="1" d="M 432.273438 288.605469 C 431.449219 288.605469 430.78125 289.273438 430.78125 290.09375 C 430.78125 290.914062 431.449219 291.585938 432.273438 291.585938 C 433.09375 291.585938 433.761719 290.914062 433.761719 290.09375 C 433.761719 289.273438 433.09375 288.605469 432.273438 288.605469 M 432.273438 292.332031 C 431.039062 292.332031 430.035156 291.328125 430.035156 290.09375 C 430.035156 288.863281 431.039062 287.859375 432.273438 287.859375 C 433.503906 287.859375 434.507812 288.863281 434.507812 290.09375 C 434.507812 291.328125 433.503906 292.332031 432.273438 292.332031 "/>
<path fill-rule="nonzero" fill="rgb(0%, 0%, 0%)" fill-opacity="1" d="M 534.019531 235.628906 C 534.019531 236.65625 533.1875 237.484375 532.164062 237.484375 C 531.140625 237.484375 530.308594 236.65625 530.308594 235.628906 C 530.308594 234.605469 531.140625 233.777344 532.164062 233.777344 C 533.1875 233.777344 534.019531 234.605469 534.019531 235.628906 "/>
<path fill-rule="nonzero" fill="rgb(0%, 0%, 0%)" fill-opacity="1" d="M 532.164062 234.148438 C 531.347656 234.148438 530.683594 234.8125 530.683594 235.628906 C 530.683594 236.449219 531.347656 237.113281 532.164062 237.113281 C 532.980469 237.113281 533.648438 236.449219 533.648438 235.628906 C 533.648438 234.8125 532.980469 234.148438 532.164062 234.148438 M 532.164062 237.859375 C 530.9375 237.859375 529.9375 236.859375 529.9375 235.628906 C 529.9375 234.402344 530.9375 233.402344 532.164062 233.402344 C 533.394531 233.402344 534.394531 234.402344 534.394531 235.628906 C 534.394531 236.859375 533.394531 237.859375 532.164062 237.859375 "/>
<path fill-rule="nonzero" fill="rgb(0%, 0%, 0%)" fill-opacity="1" d="M 411.636719 275.640625 C 414.035156 278.042969 408.117188 280.789062 408.355469 276.625 C 408.449219 274.9375 410.867188 274.871094 411.636719 275.640625 "/>
<path fill-rule="nonzero" fill="rgb(0%, 0%, 0%)" fill-opacity="1" d="M 410.21875 275.542969 C 409.96875 275.542969 409.714844 275.582031 409.480469 275.671875 C 409.007812 275.851562 408.753906 276.179688 408.726562 276.648438 C 408.6875 277.300781 408.796875 278.121094 409.523438 278.347656 C 410.222656 278.5625 411.246094 278.132812 411.664062 277.441406 C 411.96875 276.933594 411.871094 276.402344 411.375 275.90625 C 411.15625 275.6875 410.703125 275.542969 410.21875 275.542969 M 409.917969 279.148438 C 409.707031 279.148438 409.5 279.121094 409.304688 279.058594 C 408.871094 278.925781 407.878906 278.417969 407.980469 276.605469 C 408.027344 275.839844 408.464844 275.257812 409.214844 274.972656 C 410.125 274.625 411.328125 274.808594 411.902344 275.378906 C 412.644531 276.121094 412.789062 277.015625 412.300781 277.828125 C 411.820312 278.628906 410.828125 279.148438 409.917969 279.148438 "/>
<path fill-rule="nonzero" fill="rgb(0%, 0%, 0%)" fill-opacity="1" d="M 431.59375 79.609375 C 435.011719 78.585938 434.699219 84.375 431.457031 82.953125 C 429.75 82.207031 430.09375 80.058594 431.59375 79.609375 "/>
<path fill-rule="nonzero" fill="rgb(0%, 0%, 0%)" fill-opacity="1" d="M 432.363281 79.859375 C 432.160156 79.859375 431.941406 79.894531 431.703125 79.96875 C 431.125 80.140625 430.730469 80.636719 430.691406 81.238281 C 430.65625 81.832031 431 82.34375 431.605469 82.613281 C 432.328125 82.929688 432.910156 82.859375 433.285156 82.414062 C 433.726562 81.894531 433.777344 80.96875 433.398438 80.390625 C 433.167969 80.039062 432.816406 79.859375 432.363281 79.859375 M 432.429688 83.554688 C 432.078125 83.554688 431.699219 83.46875 431.308594 83.296875 C 430.414062 82.902344 429.894531 82.097656 429.949219 81.191406 C 430.003906 80.289062 430.621094 79.511719 431.488281 79.253906 C 432.582031 78.925781 433.503906 79.191406 434.023438 79.980469 C 434.585938 80.839844 434.511719 82.121094 433.855469 82.898438 C 433.488281 83.332031 432.992188 83.554688 432.429688 83.554688 "/>
<path fill-rule="nonzero" fill="rgb(0%, 0%, 0%)" fill-opacity="1" d="M 386.660156 235.621094 C 386.660156 236.640625 385.835938 237.46875 384.8125 237.46875 C 383.792969 237.46875 382.964844 236.640625 382.964844 235.621094 C 382.964844 234.601562 383.792969 233.777344 384.8125 233.777344 C 385.835938 233.777344 386.660156 234.601562 386.660156 235.621094 "/>
<path fill-rule="nonzero" fill="rgb(0%, 0%, 0%)" fill-opacity="1" d="M 384.8125 234.148438 C 384 234.148438 383.339844 234.808594 383.339844 235.621094 C 383.339844 236.433594 384 237.097656 384.8125 237.097656 C 385.628906 237.097656 386.289062 236.433594 386.289062 235.621094 C 386.289062 234.808594 385.628906 234.148438 384.8125 234.148438 M 384.8125 237.84375 C 383.589844 237.84375 382.59375 236.847656 382.59375 235.621094 C 382.59375 234.398438 383.589844 233.402344 384.8125 233.402344 C 386.039062 233.402344 387.035156 234.398438 387.035156 235.621094 C 387.035156 236.847656 386.039062 237.84375 384.8125 237.84375 "/>
<path fill-rule="nonzero" fill="rgb(0%, 0%, 0%)" fill-opacity="1" d="M 386.710938 136.511719 C 386.710938 137.539062 385.878906 138.371094 384.855469 138.371094 C 383.828125 138.371094 382.996094 137.539062 382.996094 136.511719 C 382.996094 135.484375 383.828125 134.65625 384.855469 134.65625 C 385.878906 134.65625 386.710938 135.484375 386.710938 136.511719 "/>
<path fill-rule="nonzero" fill="rgb(0%, 0%, 0%)" fill-opacity="1" d="M 384.855469 135.027344 C 384.035156 135.027344 383.371094 135.695312 383.371094 136.511719 C 383.371094 137.328125 384.035156 137.996094 384.855469 137.996094 C 385.671875 137.996094 386.339844 137.328125 386.339844 136.511719 C 386.339844 135.695312 385.671875 135.027344 384.855469 135.027344 M 384.855469 138.742188 C 383.625 138.742188 382.621094 137.742188 382.621094 136.511719 C 382.621094 135.28125 383.625 134.28125 384.855469 134.28125 C 386.082031 134.28125 387.085938 135.28125 387.085938 136.511719 C 387.085938 137.742188 386.082031 138.742188 384.855469 138.742188 "/>
<path fill-rule="nonzero" fill="rgb(0%, 0%, 0%)" fill-opacity="1" d="M 524.679688 257.78125 C 524.679688 258.804688 523.851562 259.636719 522.828125 259.636719 C 521.800781 259.636719 520.972656 258.804688 520.972656 257.78125 C 520.972656 256.757812 521.800781 255.929688 522.828125 255.929688 C 523.851562 255.929688 524.679688 256.757812 524.679688 257.78125 "/>
<path fill-rule="nonzero" fill="rgb(0%, 0%, 0%)" fill-opacity="1" d="M 522.824219 256.300781 C 522.007812 256.300781 521.347656 256.964844 521.347656 257.78125 C 521.347656 258.597656 522.007812 259.261719 522.824219 259.261719 C 523.640625 259.261719 524.308594 258.597656 524.308594 257.78125 C 524.308594 256.964844 523.640625 256.300781 522.824219 256.300781 M 522.824219 260.007812 C 521.597656 260.007812 520.597656 259.007812 520.597656 257.78125 C 520.597656 256.554688 521.597656 255.554688 522.824219 255.554688 C 524.054688 255.554688 525.054688 256.554688 525.054688 257.78125 C 525.054688 259.007812 524.054688 260.007812 522.824219 260.007812 "/>
<path fill-rule="nonzero" fill="rgb(0%, 0%, 0%)" fill-opacity="1" d="M 539.421875 211.496094 C 539.421875 212.519531 538.589844 213.347656 537.566406 213.347656 C 536.542969 213.347656 535.710938 212.519531 535.710938 211.496094 C 535.710938 210.46875 536.542969 209.640625 537.566406 209.640625 C 538.589844 209.640625 539.421875 210.46875 539.421875 211.496094 "/>
<path fill-rule="nonzero" fill="rgb(0%, 0%, 0%)" fill-opacity="1" d="M 537.566406 210.011719 C 536.75 210.011719 536.082031 210.675781 536.082031 211.496094 C 536.082031 212.3125 536.75 212.976562 537.566406 212.976562 C 538.382812 212.976562 539.046875 212.3125 539.046875 211.496094 C 539.046875 210.675781 538.382812 210.011719 537.566406 210.011719 M 537.566406 213.722656 C 536.339844 213.722656 535.335938 212.722656 535.335938 211.496094 C 535.335938 210.265625 536.339844 209.265625 537.566406 209.265625 C 538.796875 209.265625 539.792969 210.265625 539.792969 211.496094 C 539.792969 212.722656 538.796875 213.722656 537.566406 213.722656 "/>
<path fill-rule="nonzero" fill="rgb(0%, 0%, 0%)" fill-opacity="1" d="M 541.277344 186.105469 C 541.277344 187.128906 540.445312 187.960938 539.421875 187.960938 C 538.394531 187.960938 537.566406 187.128906 537.566406 186.105469 C 537.566406 185.078125 538.394531 184.25 539.421875 184.25 C 540.445312 184.25 541.277344 185.078125 541.277344 186.105469 "/>
<path fill-rule="nonzero" fill="rgb(0%, 0%, 0%)" fill-opacity="1" d="M 539.421875 184.621094 C 538.601562 184.621094 537.9375 185.285156 537.9375 186.105469 C 537.9375 186.921875 538.601562 187.585938 539.421875 187.585938 C 540.238281 187.585938 540.902344 186.921875 540.902344 186.105469 C 540.902344 185.285156 540.238281 184.621094 539.421875 184.621094 M 539.421875 188.332031 C 538.191406 188.332031 537.191406 187.332031 537.191406 186.105469 C 537.191406 184.875 538.191406 183.875 539.421875 183.875 C 540.648438 183.875 541.648438 184.875 541.648438 186.105469 C 541.648438 187.332031 540.648438 188.332031 539.421875 188.332031 "/>
<path fill-rule="nonzero" fill="rgb(0%, 0%, 0%)" fill-opacity="1" d="M 534.050781 136.519531 C 534.050781 137.539062 533.226562 138.363281 532.207031 138.363281 C 531.191406 138.363281 530.367188 137.539062 530.367188 136.519531 C 530.367188 135.503906 531.191406 134.679688 532.207031 134.679688 C 533.226562 134.679688 534.050781 135.503906 534.050781 136.519531 "/>
<path fill-rule="nonzero" fill="rgb(0%, 0%, 0%)" fill-opacity="1" d="M 532.210938 135.054688 C 531.398438 135.054688 530.742188 135.710938 530.742188 136.519531 C 530.742188 137.332031 531.398438 137.988281 532.210938 137.988281 C 533.019531 137.988281 533.679688 137.332031 533.679688 136.519531 C 533.679688 135.710938 533.019531 135.054688 532.210938 135.054688 M 532.210938 138.734375 C 530.988281 138.734375 529.996094 137.742188 529.996094 136.519531 C 529.996094 135.300781 530.988281 134.308594 532.210938 134.308594 C 533.429688 134.308594 534.425781 135.300781 534.425781 136.519531 C 534.425781 137.742188 533.429688 138.734375 532.210938 138.734375 "/>
<path fill-rule="nonzero" fill="rgb(0%, 0%, 0%)" fill-opacity="1" d="M 381.269531 160.546875 C 381.269531 161.5625 380.445312 162.390625 379.429688 162.390625 C 378.410156 162.390625 377.585938 161.5625 377.585938 160.546875 C 377.585938 159.53125 378.410156 158.707031 379.429688 158.707031 C 380.445312 158.707031 381.269531 159.53125 381.269531 160.546875 "/>
<path fill-rule="nonzero" fill="rgb(0%, 0%, 0%)" fill-opacity="1" d="M 379.429688 159.078125 C 378.617188 159.078125 377.960938 159.738281 377.960938 160.546875 C 377.960938 161.355469 378.617188 162.015625 379.429688 162.015625 C 380.238281 162.015625 380.898438 161.355469 380.898438 160.546875 C 380.898438 159.738281 380.238281 159.078125 379.429688 159.078125 M 379.429688 162.761719 C 378.207031 162.761719 377.214844 161.769531 377.214844 160.546875 C 377.214844 159.324219 378.207031 158.332031 379.429688 158.332031 C 380.648438 158.332031 381.644531 159.324219 381.644531 160.546875 C 381.644531 161.769531 380.648438 162.761719 379.429688 162.761719 "/>
<path fill-rule="nonzero" fill="rgb(0%, 0%, 0%)" fill-opacity="1" d="M 539.429688 160.574219 C 539.429688 161.589844 538.605469 162.414062 537.589844 162.414062 C 536.574219 162.414062 535.753906 161.589844 535.753906 160.574219 C 535.753906 159.5625 536.574219 158.738281 537.589844 158.738281 C 538.605469 158.738281 539.429688 159.5625 539.429688 160.574219 "/>
<path fill-rule="nonzero" fill="rgb(0%, 0%, 0%)" fill-opacity="1" d="M 537.589844 159.109375 C 536.78125 159.109375 536.125 159.769531 536.125 160.574219 C 536.125 161.382812 536.78125 162.042969 537.589844 162.042969 C 538.398438 162.042969 539.054688 161.382812 539.054688 160.574219 C 539.054688 159.769531 538.398438 159.109375 537.589844 159.109375 M 537.589844 162.785156 C 536.371094 162.785156 535.378906 161.796875 535.378906 160.574219 C 535.378906 159.355469 536.371094 158.363281 537.589844 158.363281 C 538.808594 158.363281 539.800781 159.355469 539.800781 160.574219 C 539.800781 161.796875 538.808594 162.785156 537.589844 162.785156 "/>
<path fill-rule="nonzero" fill="rgb(0%, 0%, 0%)" fill-opacity="1" d="M 521.625 112.898438 C 523.882812 110.644531 526.730469 116.414062 522.613281 116.179688 C 520.921875 116.082031 520.855469 113.664062 521.625 112.898438 "/>
<path fill-rule="nonzero" fill="rgb(0%, 0%, 0%)" fill-opacity="1" d="M 522.75 112.746094 C 522.453125 112.746094 522.167969 112.882812 521.890625 113.160156 C 521.5625 113.488281 521.394531 114.363281 521.652344 115.050781 C 521.835938 115.523438 522.164062 115.78125 522.632812 115.804688 C 523.265625 115.839844 524.066406 115.742188 524.277344 115.058594 C 524.492188 114.367188 524.046875 113.351562 523.339844 112.925781 C 523.140625 112.804688 522.941406 112.746094 522.75 112.746094 M 522.855469 116.558594 C 522.769531 116.558594 522.683594 116.554688 522.589844 116.550781 C 521.824219 116.507812 521.242188 116.070312 520.957031 115.316406 C 520.609375 114.40625 520.792969 113.203125 521.363281 112.632812 C 522.066406 111.929688 522.925781 111.804688 523.726562 112.285156 C 524.726562 112.890625 525.304688 114.261719 524.992188 115.277344 C 524.839844 115.769531 524.363281 116.558594 522.855469 116.558594 "/>
<path fill-rule="nonzero" fill="rgb(0%, 0%, 0%)" fill-opacity="1" d="M 381.230469 211.527344 C 381.230469 212.542969 380.40625 213.367188 379.390625 213.367188 C 378.375 213.367188 377.550781 212.542969 377.550781 211.527344 C 377.550781 210.511719 378.375 209.6875 379.390625 209.6875 C 380.40625 209.6875 381.230469 210.511719 381.230469 211.527344 "/>
<path fill-rule="nonzero" fill="rgb(0%, 0%, 0%)" fill-opacity="1" d="M 379.390625 210.0625 C 378.582031 210.0625 377.925781 210.71875 377.925781 211.527344 C 377.925781 212.335938 378.582031 212.996094 379.390625 212.996094 C 380.199219 212.996094 380.859375 212.335938 380.859375 211.527344 C 380.859375 210.71875 380.199219 210.0625 379.390625 210.0625 M 379.390625 213.742188 C 378.171875 213.742188 377.179688 212.75 377.179688 211.527344 C 377.179688 210.308594 378.171875 209.316406 379.390625 209.316406 C 380.613281 209.316406 381.605469 210.308594 381.605469 211.527344 C 381.605469 212.75 380.613281 213.742188 379.390625 213.742188 "/>
<path fill-rule="nonzero" fill="rgb(0%, 0%, 0%)" fill-opacity="1" d="M 378.878906 186.179688 C 378.878906 187.171875 378.070312 187.980469 377.078125 187.980469 C 376.082031 187.980469 375.277344 187.171875 375.277344 186.179688 C 375.277344 185.1875 376.082031 184.378906 377.078125 184.378906 C 378.070312 184.378906 378.878906 185.1875 378.878906 186.179688 "/>
<path fill-rule="nonzero" fill="rgb(0%, 0%, 0%)" fill-opacity="1" d="M 377.078125 184.753906 C 376.289062 184.753906 375.648438 185.394531 375.648438 186.179688 C 375.648438 186.964844 376.289062 187.605469 377.078125 187.605469 C 377.863281 187.605469 378.503906 186.964844 378.503906 186.179688 C 378.503906 185.394531 377.863281 184.753906 377.078125 184.753906 M 377.078125 188.351562 C 375.878906 188.351562 374.902344 187.378906 374.902344 186.179688 C 374.902344 184.980469 375.878906 184.007812 377.078125 184.007812 C 378.273438 184.007812 379.25 184.980469 379.25 186.179688 C 379.25 187.378906 378.273438 188.351562 377.078125 188.351562 "/>
<path fill-rule="nonzero" fill="rgb(0%, 0%, 0%)" fill-opacity="1" d="M 396.121094 257.828125 C 396.121094 258.820312 395.316406 259.625 394.324219 259.625 C 393.328125 259.625 392.523438 258.820312 392.523438 257.828125 C 392.523438 256.832031 393.328125 256.027344 394.324219 256.027344 C 395.316406 256.027344 396.121094 256.832031 396.121094 257.828125 "/>
<path fill-rule="nonzero" fill="rgb(0%, 0%, 0%)" fill-opacity="1" d="M 394.324219 256.402344 C 393.535156 256.402344 392.898438 257.039062 392.898438 257.828125 C 392.898438 258.613281 393.535156 259.253906 394.324219 259.253906 C 395.109375 259.253906 395.75 258.613281 395.75 257.828125 C 395.75 257.039062 395.109375 256.402344 394.324219 256.402344 M 394.324219 260 C 393.125 260 392.152344 259.023438 392.152344 257.828125 C 392.152344 256.628906 393.125 255.65625 394.324219 255.65625 C 395.519531 255.65625 396.496094 256.628906 396.496094 257.828125 C 396.496094 259.023438 395.519531 260 394.324219 260 "/>
<path fill-rule="nonzero" fill="rgb(0%, 0%, 0%)" fill-opacity="1" d="M 473.382812 119.054688 C 482.308594 118.144531 491.0625 123.519531 490.449219 133.253906 C 490.175781 137.535156 487.152344 142.125 482.496094 142.328125 C 481.101562 142.390625 478 141.441406 478 139.746094 C 478 138.976562 480.453125 136.59375 481.035156 135.503906 C 485.199219 127.671875 476.183594 119.644531 469.792969 127.324219 C 461.4375 137.363281 470.636719 155.34375 475.875 165.015625 C 481.40625 175.234375 488.789062 184.902344 491.300781 196.433594 C 494.507812 211.140625 493.339844 228.859375 484.097656 241.242188 C 477.621094 249.914062 467.191406 253.84375 456.597656 250.640625 C 435.679688 244.316406 433.800781 208.761719 451.878906 198.316406 C 466.015625 190.148438 478.78125 204.371094 471.996094 218.050781 C 469.75 222.578125 462.847656 226.851562 457.992188 224.007812 C 457.207031 223.550781 456.535156 222.5625 457.070312 221.671875 C 457.195312 221.460938 460.652344 220.070312 461.4375 219.535156 C 464.828125 217.230469 466.566406 213.082031 466.105469 209.011719 C 465.371094 202.574219 459.015625 200.34375 454.488281 205.128906 C 446.167969 213.929688 446.792969 240.816406 460.078125 245.054688 C 470.359375 248.332031 477.359375 239.9375 480.117188 231.140625 C 484.574219 216.921875 480.769531 203.570312 474.09375 190.886719 C 464.480469 172.617188 448.507812 156.390625 457.21875 134.058594 C 459.8125 127.402344 465.773438 119.832031 473.382812 119.054688 "/>
<path fill-rule="nonzero" fill="rgb(0%, 0%, 0%)" fill-opacity="1" d="M 403.632812 154.753906 L 403.601562 156.539062 C 402.394531 157.34375 401.261719 157.871094 401.003906 159.484375 C 400.753906 161.046875 402.253906 165.621094 402.730469 167.414062 C 405.25 176.871094 408.144531 186.257812 410.804688 195.671875 L 417.339844 171.894531 C 415.945312 168.203125 415.324219 163.761719 413.800781 160.167969 C 412.984375 158.238281 411.851562 157.125 409.777344 156.640625 L 409.753906 154.753906 L 429.636719 154.753906 L 429.605469 156.636719 C 427.304688 157.523438 426.511719 158.628906 426.789062 161.140625 C 427.15625 164.449219 429.304688 170.230469 430.308594 173.683594 C 432 179.507812 433.816406 185.308594 435.660156 191.082031 C 437.375 184.871094 439.082031 178.636719 440.671875 172.386719 C 441.5 169.125 443.28125 163.863281 443.570312 160.753906 C 443.808594 158.195312 442.886719 157.074219 440.429688 156.484375 L 440.34375 154.753906 L 452.484375 154.753906 C 453.605469 156.964844 452.105469 156.695312 451.058594 157.535156 C 449.957031 158.410156 449.339844 160.730469 448.898438 162.066406 C 443.6875 177.804688 440.121094 194.960938 435.511719 211.007812 C 435.039062 212.648438 434.613281 214.320312 434.003906 215.90625 L 431.335938 215.828125 L 420.363281 179.800781 L 409.964844 215.828125 L 404.980469 215.929688 L 388.726562 160.386719 C 387.941406 158.601562 386.113281 156.960938 384.152344 156.648438 L 384.132812 154.753906 Z M 403.632812 154.753906 "/>
<path fill-rule="nonzero" fill="rgb(0%, 0%, 0%)" fill-opacity="1" d="M 504.300781 154.753906 C 504.726562 154.886719 504.601562 156.054688 504.566406 156.457031 C 500.378906 157.226562 502.511719 160.722656 503.722656 163.171875 C 505.542969 166.855469 507.808594 170.34375 509.5625 174.066406 C 509.695312 174.15625 509.902344 173.746094 509.980469 173.625 C 511.753906 170.78125 513.800781 167.230469 515.328125 164.25 C 516.816406 161.34375 519.160156 157.140625 513.957031 156.664062 L 513.957031 154.753906 L 531.546875 154.753906 L 531.464844 156.488281 C 529.425781 156.890625 527.683594 157.582031 526.183594 159.046875 C 521.175781 165.703125 517.421875 173.226562 513 180.28125 C 515.765625 185.371094 518.410156 190.527344 521.1875 195.609375 C 523.515625 199.867188 525.957031 204.851562 528.597656 208.847656 C 530.390625 211.554688 532.296875 213.792969 535.726562 214.242188 L 535.753906 215.9375 L 511.46875 215.9375 L 511.554688 214.203125 C 512.695312 213.886719 513.546875 213.9375 514.535156 213.167969 C 516.71875 211.472656 515.574219 209.484375 514.628906 207.523438 C 512.320312 202.734375 509.390625 197.667969 506.78125 193 C 506.519531 192.527344 506.238281 191.988281 506.113281 191.464844 L 494.648438 210.585938 L 493.917969 200.402344 L 502.53125 186.050781 L 502.644531 185.488281 L 489.945312 161.84375 C 488.390625 159.324219 486.214844 156.664062 482.980469 156.667969 L 482.980469 154.753906 Z M 504.300781 154.753906 "/>
<path fill-rule="nonzero" fill="rgb(0%, 0%, 0%)" fill-opacity="1" d="M 458.277344 58.628906 C 404.671875 58.628906 361.058594 115.554688 361.058594 185.523438 C 361.058594 255.492188 404.671875 312.417969 458.277344 312.417969 C 511.882812 312.417969 555.492188 255.492188 555.492188 185.523438 C 555.492188 115.554688 511.882812 58.628906 458.277344 58.628906 M 458.277344 319.132812 C 430.347656 319.132812 404.148438 305.121094 384.503906 279.675781 C 365.054688 254.492188 354.34375 221.054688 354.34375 185.523438 C 354.34375 149.992188 365.054688 116.554688 384.503906 91.371094 C 404.148438 65.925781 430.347656 51.914062 458.277344 51.914062 C 486.203125 51.914062 512.40625 65.925781 532.050781 91.371094 C 551.496094 116.554688 562.207031 149.992188 562.207031 185.523438 C 562.207031 221.054688 551.496094 254.492188 532.050781 279.675781 C 512.40625 305.121094 486.203125 319.132812 458.277344 319.132812 "/>
</page>
<page>
<g clip-path="url(#clip-1)">

</g>
<path fill-rule="nonzero" fill="rgb(0%, 0%, 0%)" fill-opacity="1" d="M 540.019531 279.277344 C 553.742188 277.875 567.195312 286.136719 566.25 301.097656 C 565.832031 307.679688 561.1875 314.738281 554.027344 315.046875 C 551.886719 315.140625 547.121094 313.683594 547.117188 311.078125 C 547.117188 309.898438 550.886719 306.230469 551.78125 304.554688 C 558.1875 292.519531 544.328125 280.179688 534.503906 291.980469 C 521.660156 307.414062 535.800781 335.054688 543.851562 349.921875 C 552.355469 365.625 563.699219 380.484375 567.5625 398.210938 C 572.488281 420.820312 570.699219 448.058594 556.488281 467.085938 C 546.535156 480.414062 530.503906 486.457031 514.21875 481.535156 C 482.066406 471.8125 479.175781 417.160156 506.964844 401.105469 C 528.699219 388.546875 548.320312 410.414062 537.890625 431.4375 C 534.433594 438.402344 523.824219 444.964844 516.359375 440.597656 C 515.15625 439.890625 514.121094 438.375 514.949219 437.003906 C 515.140625 436.683594 520.449219 434.542969 521.65625 433.722656 C 526.871094 430.183594 529.542969 423.800781 528.832031 417.546875 C 527.707031 407.648438 517.933594 404.222656 510.976562 411.582031 C 498.183594 425.105469 499.148438 466.433594 519.570312 472.949219 C 535.371094 477.984375 546.136719 465.078125 550.371094 451.5625 C 557.222656 429.707031 551.375 409.183594 541.113281 389.6875 C 526.339844 361.605469 501.78125 336.660156 515.171875 302.332031 C 519.164062 292.105469 528.328125 280.46875 540.019531 279.277344 "/>
<path fill-rule="nonzero" fill="rgb(0%, 0%, 0%)" fill-opacity="1" d="M 432.808594 334.148438 L 432.761719 336.890625 C 430.902344 338.128906 429.164062 338.933594 428.765625 341.417969 C 428.378906 343.816406 430.6875 350.851562 431.421875 353.609375 C 435.296875 368.144531 439.746094 382.570312 443.832031 397.042969 L 453.878906 360.492188 C 451.734375 354.820312 450.777344 347.992188 448.4375 342.46875 C 447.183594 339.503906 445.441406 337.789062 442.253906 337.046875 L 442.214844 334.148438 L 472.777344 334.148438 L 472.730469 337.039062 C 469.191406 338.402344 467.972656 340.105469 468.402344 343.960938 C 468.964844 349.050781 472.265625 357.933594 473.808594 363.242188 C 476.410156 372.195312 479.203125 381.113281 482.035156 389.988281 C 484.671875 380.441406 487.296875 370.855469 489.742188 361.25 C 491.015625 356.238281 493.75 348.144531 494.195312 343.371094 C 494.566406 339.4375 493.144531 337.710938 489.367188 336.808594 L 489.238281 334.148438 L 507.898438 334.148438 C 509.617188 337.546875 507.316406 337.132812 505.703125 338.417969 C 504.015625 339.769531 503.0625 343.335938 502.382812 345.382812 C 494.375 369.578125 488.894531 395.949219 481.804688 420.613281 C 481.082031 423.136719 480.425781 425.703125 479.488281 428.144531 L 475.390625 428.023438 L 458.523438 372.644531 L 442.542969 428.023438 L 434.878906 428.179688 L 409.894531 342.808594 C 408.6875 340.0625 405.878906 337.535156 402.863281 337.058594 L 402.832031 334.148438 Z M 432.808594 334.148438 "/>
<path fill-rule="nonzero" fill="rgb(0%, 0%, 0%)" fill-opacity="1" d="M 587.542969 334.148438 C 588.195312 334.347656 588.003906 336.148438 587.953125 336.761719 C 581.511719 337.949219 584.796875 343.320312 586.65625 347.085938 C 589.453125 352.746094 592.933594 358.105469 595.628906 363.828125 C 595.832031 363.96875 596.15625 363.335938 596.273438 363.152344 C 599 358.777344 602.148438 353.324219 604.492188 348.746094 C 606.785156 344.273438 610.382812 337.816406 602.386719 337.085938 L 602.386719 334.148438 L 629.421875 334.148438 L 629.296875 336.8125 C 626.160156 337.433594 623.488281 338.492188 621.179688 340.746094 C 613.484375 350.976562 607.710938 362.542969 600.917969 373.382812 C 605.164062 381.207031 609.234375 389.132812 613.503906 396.945312 C 617.082031 403.488281 620.832031 411.15625 624.894531 417.292969 C 627.648438 421.457031 630.574219 424.894531 635.851562 425.585938 L 635.890625 428.191406 L 598.566406 428.191406 L 598.691406 425.527344 C 600.449219 425.039062 601.757812 425.117188 603.273438 423.9375 C 606.628906 421.332031 604.875 418.273438 603.421875 415.253906 C 599.871094 407.894531 595.367188 400.109375 591.359375 392.929688 C 590.957031 392.210938 590.523438 391.382812 590.332031 390.574219 L 572.707031 419.964844 L 571.585938 404.3125 L 584.824219 382.257812 L 584.996094 381.386719 L 565.476562 345.046875 C 563.085938 341.171875 559.742188 337.085938 554.773438 337.085938 L 554.773438 334.148438 Z M 587.542969 334.148438 "/>
</page>
<page>
<g clip-path="url(#clip-2)">
</g>
<path fill-rule="nonzero" fill="rgb(0%, 0%, 0%)" fill-opacity="1" d="M 482.859375 247.96875 L 436.742188 112.261719 C 434 111.28125 431.304688 110.257812 428.664062 109.175781 C 426.019531 108.101562 423.523438 106.78125 421.171875 105.210938 L 421.171875 97.574219 L 482.859375 97.574219 L 482.859375 104.917969 C 480.113281 106.488281 477.375 107.90625 474.632812 109.175781 C 471.890625 110.453125 469.054688 111.480469 466.113281 112.261719 L 491.160156 198.03125 L 494.902344 219.183594 L 495.488281 219.183594 L 499.894531 197.445312 L 531.617188 100.511719 L 540.433594 97.574219 L 574.210938 197.738281 L 579.496094 219.183594 L 580.085938 219.183594 L 584.492188 197.738281 L 607.109375 112.261719 C 604.953125 111.871094 602.457031 111.085938 599.617188 109.910156 C 596.777344 108.734375 593.890625 107.171875 590.953125 105.210938 L 590.953125 97.574219 L 640.890625 97.574219 L 640.890625 105.210938 C 636.777344 107.957031 631.195312 110.308594 624.144531 112.261719 L 582.4375 244.445312 L 566.867188 247.96875 L 537.789062 164.839844 L 532.207031 140.460938 L 531.324219 140.460938 L 524.570312 164.839844 L 498.132812 244.445312 Z M 482.859375 247.96875 "/>
<path fill-rule="nonzero" fill="rgb(0%, 0%, 0%)" fill-opacity="1" d="M 693.175781 106.976562 C 682.011719 106.976562 673.496094 110.746094 667.621094 118.28125 C 661.742188 125.824219 658.21875 139.089844 657.042969 158.085938 L 721.667969 158.085938 C 721.859375 156.320312 722.007812 154.609375 722.109375 152.945312 C 722.207031 151.28125 722.257812 149.667969 722.257812 148.097656 C 722.257812 135.566406 719.90625 125.582031 715.207031 118.136719 C 710.507812 110.695312 703.164062 106.976562 693.175781 106.976562 M 746.929688 223.878906 C 745.359375 227.210938 742.914062 230.34375 739.585938 233.28125 C 736.253906 236.21875 732.4375 238.765625 728.128906 240.917969 C 723.820312 243.078125 719.121094 244.785156 714.03125 246.058594 C 708.9375 247.332031 703.75 247.96875 698.460938 247.96875 C 686.90625 247.96875 676.726562 246.152344 667.914062 242.535156 C 659.101562 238.910156 651.757812 233.722656 645.882812 226.964844 C 640.011719 220.210938 635.550781 212.132812 632.519531 202.734375 C 629.480469 193.332031 627.964844 182.757812 627.964844 171.007812 C 627.964844 145.945312 633.738281 126.851562 645.296875 113.730469 C 656.847656 100.613281 673.203125 94.050781 694.347656 94.050781 C 701.203125 94.050781 707.957031 94.980469 714.621094 96.839844 C 721.273438 98.703125 727.199219 101.785156 732.390625 106.089844 C 737.578125 110.402344 741.789062 116.128906 745.019531 123.277344 C 748.25 130.429688 749.863281 139.285156 749.863281 149.859375 C 749.863281 153.191406 749.71875 156.570312 749.425781 159.996094 C 749.132812 163.421875 748.589844 167.09375 747.8125 171.007812 L 656.164062 171.007812 C 656.164062 179.234375 657.195312 186.921875 659.246094 194.066406 C 661.304688 201.21875 664.386719 207.433594 668.5 212.71875 C 672.613281 218.007812 677.800781 222.171875 684.066406 225.203125 C 690.335938 228.242188 697.679688 229.757812 706.097656 229.757812 C 712.953125 229.757812 719.90625 228.777344 726.953125 226.820312 C 734.003906 224.863281 739.289062 222.316406 742.816406 219.179688 Z M 746.929688 223.878906 "/>
<path fill-rule="nonzero" fill="rgb(0%, 0%, 0%)" fill-opacity="1" d="M 828.292969 210.957031 C 828.292969 205.476562 826.574219 200.824219 823.152344 197.007812 C 819.722656 193.1875 815.367188 189.617188 810.082031 186.28125 C 804.792969 182.957031 799.164062 179.726562 793.1875 176.589844 C 787.214844 173.460938 781.585938 169.789062 776.296875 165.574219 C 771.011719 161.363281 766.652344 156.519531 763.226562 151.035156 C 759.800781 145.554688 758.085938 138.796875 758.085938 130.765625 C 758.085938 125.480469 759.308594 120.585938 761.757812 116.078125 C 764.207031 111.578125 767.488281 107.707031 771.597656 104.480469 C 775.710938 101.246094 780.507812 98.703125 785.992188 96.839844 C 791.472656 94.980469 797.347656 94.050781 803.617188 94.050781 C 814.191406 94.050781 822.859375 94.636719 829.613281 95.8125 C 836.367188 96.988281 842.878906 98.652344 849.148438 100.804688 C 848.359375 107.078125 847.429688 113.390625 846.355469 119.753906 C 845.277344 126.117188 843.757812 132.632812 841.804688 139.285156 L 834.460938 139.285156 L 823.296875 109.324219 C 820.949219 108.347656 818.304688 107.707031 815.367188 107.414062 C 812.429688 107.121094 809.390625 106.972656 806.261719 106.972656 C 802.738281 106.972656 799.652344 107.613281 797.007812 108.882812 C 794.363281 110.160156 792.113281 111.773438 790.253906 113.730469 C 788.386719 115.691406 786.972656 117.945312 785.992188 120.484375 C 785.011719 123.035156 784.527344 125.582031 784.527344 128.121094 C 784.527344 133.410156 786.234375 137.964844 789.664062 141.78125 C 793.085938 145.601562 797.449219 149.125 802.738281 152.359375 C 808.023438 155.585938 813.648438 158.773438 819.625 161.90625 C 825.597656 165.039062 831.226562 168.5625 836.515625 172.476562 C 841.804688 176.394531 846.15625 180.949219 849.589844 186.136719 C 853.011719 191.328125 854.726562 197.546875 854.726562 204.789062 C 854.726562 211.449219 853.304688 217.421875 850.46875 222.707031 C 847.628906 227.996094 843.710938 232.503906 838.71875 236.21875 C 833.722656 239.941406 827.945312 242.828125 821.386719 244.886719 C 814.824219 246.9375 807.824219 247.96875 800.386719 247.96875 C 791.964844 247.96875 784.230469 247.234375 777.183594 245.765625 C 770.132812 244.296875 762.789062 242.191406 755.152344 239.449219 C 755.539062 232.402344 756.421875 225.597656 757.792969 219.035156 C 759.160156 212.476562 760.921875 206.160156 763.082031 200.089844 L 770.425781 200.089844 L 783.347656 232.105469 C 785.5 233.675781 788.09375 234.554688 791.132812 234.75 C 794.167969 234.949219 796.960938 235.042969 799.507812 235.042969 C 808.121094 235.042969 815.074219 232.695312 820.359375 227.996094 C 825.648438 223.292969 828.292969 217.617188 828.292969 210.957031 "/>
<path fill-rule="nonzero" fill="rgb(0%, 0%, 0%)" fill-opacity="1" d="M 933.449219 210.957031 C 933.449219 205.476562 931.734375 200.824219 928.308594 197.007812 C 924.878906 193.1875 920.523438 189.617188 915.238281 186.28125 C 909.949219 182.957031 904.320312 179.726562 898.34375 176.589844 C 892.371094 173.460938 886.742188 169.789062 881.453125 165.574219 C 876.167969 161.363281 871.808594 156.519531 868.382812 151.035156 C 864.957031 145.554688 863.242188 138.796875 863.242188 130.765625 C 863.242188 125.480469 864.464844 120.585938 866.917969 116.078125 C 869.363281 111.578125 872.644531 107.707031 876.753906 104.480469 C 880.867188 101.246094 885.664062 98.703125 891.148438 96.839844 C 896.632812 94.980469 902.503906 94.050781 908.773438 94.050781 C 919.347656 94.050781 928.015625 94.636719 934.769531 95.8125 C 941.523438 96.988281 948.035156 98.652344 954.304688 100.804688 C 953.515625 107.078125 952.585938 113.390625 951.511719 119.753906 C 950.433594 126.117188 948.914062 132.632812 946.960938 139.285156 L 939.617188 139.285156 L 928.453125 109.324219 C 926.105469 108.347656 923.460938 107.707031 920.523438 107.414062 C 917.585938 107.121094 914.546875 106.972656 911.417969 106.972656 C 907.894531 106.972656 904.808594 107.613281 902.167969 108.882812 C 899.523438 110.160156 897.269531 111.773438 895.410156 113.730469 C 893.546875 115.691406 892.128906 117.945312 891.148438 120.484375 C 890.167969 123.035156 889.683594 125.582031 889.683594 128.121094 C 889.683594 133.410156 891.390625 137.964844 894.824219 141.78125 C 898.242188 145.601562 902.605469 149.125 907.894531 152.359375 C 913.179688 155.585938 918.808594 158.773438 924.785156 161.90625 C 930.753906 165.039062 936.382812 168.5625 941.671875 172.476562 C 946.960938 176.394531 951.316406 180.949219 954.746094 186.136719 C 958.167969 191.328125 959.886719 197.546875 959.886719 204.789062 C 959.886719 211.449219 958.460938 217.421875 955.625 222.707031 C 952.785156 227.996094 948.867188 232.503906 943.875 236.21875 C 938.878906 239.941406 933.101562 242.828125 926.542969 244.886719 C 919.980469 246.9375 912.980469 247.96875 905.542969 247.96875 C 897.121094 247.96875 889.390625 247.234375 882.339844 245.765625 C 875.289062 244.296875 867.945312 242.191406 860.308594 239.449219 C 860.695312 232.402344 861.578125 225.597656 862.949219 219.035156 C 864.320312 212.476562 866.082031 206.160156 868.238281 200.089844 L 875.582031 200.089844 L 888.503906 232.105469 C 890.65625 233.675781 893.25 234.554688 896.289062 234.75 C 899.324219 234.949219 902.117188 235.042969 904.664062 235.042969 C 913.277344 235.042969 920.230469 232.695312 925.515625 227.996094 C 930.804688 223.292969 933.449219 217.617188 933.449219 210.957031 "/>
<path fill-rule="nonzero" fill="rgb(0%, 0%, 0%)" fill-opacity="1" d="M 1029.207031 106.976562 C 1018.046875 106.976562 1009.527344 110.746094 1003.652344 118.28125 C 997.777344 125.824219 994.25 139.089844 993.078125 158.085938 L 1057.703125 158.085938 C 1057.894531 156.320312 1058.039062 154.609375 1058.140625 152.945312 C 1058.238281 151.28125 1058.289062 149.667969 1058.289062 148.097656 C 1058.289062 135.566406 1055.9375 125.582031 1051.238281 118.136719 C 1046.539062 110.695312 1039.195312 106.976562 1029.207031 106.976562 M 1082.964844 223.878906 C 1081.390625 227.210938 1078.945312 230.34375 1075.621094 233.28125 C 1072.289062 236.21875 1068.46875 238.765625 1064.160156 240.917969 C 1059.851562 243.078125 1055.15625 244.785156 1050.066406 246.058594 C 1044.96875 247.332031 1039.785156 247.96875 1034.492188 247.96875 C 1022.9375 247.96875 1012.761719 246.152344 1003.945312 242.535156 C 995.136719 238.910156 987.792969 233.722656 981.917969 226.964844 C 976.042969 220.210938 971.585938 212.132812 968.550781 202.734375 C 965.511719 193.332031 963.996094 182.757812 963.996094 171.007812 C 963.996094 145.945312 969.773438 126.851562 981.328125 113.730469 C 992.882812 100.613281 1009.234375 94.050781 1030.382812 94.050781 C 1037.238281 94.050781 1043.988281 94.980469 1050.652344 96.839844 C 1057.308594 98.703125 1063.230469 101.785156 1068.421875 106.089844 C 1073.609375 110.402344 1077.824219 116.128906 1081.054688 123.277344 C 1084.28125 130.429688 1085.898438 139.285156 1085.898438 149.859375 C 1085.898438 153.191406 1085.753906 156.570312 1085.460938 159.996094 C 1085.167969 163.421875 1084.625 167.09375 1083.84375 171.007812 L 992.199219 171.007812 C 992.199219 179.234375 993.226562 186.921875 995.28125 194.066406 C 997.339844 201.21875 1000.421875 207.433594 1004.535156 212.71875 C 1008.644531 218.007812 1013.832031 222.171875 1020.101562 225.203125 C 1026.367188 228.242188 1033.710938 229.757812 1042.128906 229.757812 C 1048.984375 229.757812 1055.9375 228.777344 1062.988281 226.820312 C 1070.039062 224.863281 1075.324219 222.316406 1078.847656 219.179688 Z M 1082.964844 223.878906 "/>
<path fill-rule="nonzero" fill="rgb(0%, 0%, 0%)" fill-opacity="1" d="M 1165.207031 165.722656 L 1211.613281 230.050781 C 1214.355469 231.03125 1217.050781 232.0625 1219.695312 233.132812 C 1222.335938 234.210938 1224.835938 235.535156 1227.1875 237.101562 L 1227.1875 244.445312 L 1166.96875 244.445312 L 1166.96875 237.394531 C 1169.707031 235.828125 1172.253906 234.410156 1174.605469 233.132812 C 1176.957031 231.863281 1179.304688 230.835938 1181.652344 230.050781 L 1149.050781 181.875 L 1116.148438 230.050781 C 1118.890625 231.03125 1121.4375 232.109375 1123.789062 233.28125 C 1126.136719 234.457031 1128.488281 235.734375 1130.835938 237.101562 L 1130.835938 244.445312 L 1080.609375 244.445312 L 1080.609375 237.101562 C 1086.089844 233.773438 1091.574219 231.421875 1097.058594 230.050781 L 1140.824219 171.59375 L 1096.761719 112.261719 C 1094.019531 111.28125 1091.523438 110.257812 1089.273438 109.175781 C 1087.023438 108.101562 1084.722656 106.78125 1082.371094 105.210938 L 1082.371094 97.574219 L 1141.410156 97.574219 L 1141.410156 104.917969 C 1139.0625 106.488281 1136.761719 107.90625 1134.511719 109.175781 C 1132.257812 110.453125 1129.761719 111.480469 1127.019531 112.261719 L 1157.570312 156.320312 L 1187.53125 112.261719 C 1180.871094 110.109375 1175.972656 107.757812 1172.84375 105.210938 L 1172.84375 97.574219 L 1221.894531 97.574219 L 1221.894531 105.210938 C 1218.175781 107.757812 1212.691406 110.109375 1205.449219 112.261719 Z M 1165.207031 165.722656 "/>
</page>
</pageSet>
</svg>
